<!--?xml version="1.0" encoding="utf-8"?-->
<!-- Generator: Adobe Illustrator 18.0.0, SVG Export Plug-In . SVG Version: 6.00 Build 0)  -->

<svg version="1.1" id="_x31_0" xmlns="http://www.w3.org/2000/svg" xmlns:xlink="http://www.w3.org/1999/xlink" x="0px" y="0px" viewBox="0 0 512 512" style="width: 512px; height: 512px; opacity: 1;" xml:space="preserve">
<style type="text/css">
	.st0{fill:#374149;}
</style>
<g>
	<path class="st0" d="M410.432,221.842v-0.082c-6.289,0.934-12.773,1.418-19.307,1.41c-4.949-0.008-9.8-0.305-14.612-0.895
		c-0.211-0.031-0.438-0.038-0.653-0.07v0.007c-0.027-0.004-0.054-0.004-0.082-0.007l-0.367,255.09l-311.872-0.454l0.52-358.501
		l165.118,0.242l33.459,0.062v-0.015h0.078c-1.816-8.714-2.746-17.726-2.73-26.982c0.003-2.496,0.058-4.985,0.199-7.434
		c0.007-0.05,0.003-0.11,0.007-0.16l0,0c0-0.027,0-0.054,0-0.078L29.459,83.639l-0.617,424.518l-0.004,3.206l0,0v0.082L410.01,512
		l0.367-252.859l0.066-37.299C410.44,221.842,410.436,221.842,410.432,221.842z" style="fill: rgb(75, 75, 75);"></path>
	<polygon class="st0" points="115.098,213.573 113.504,213.569 113.504,213.569 113.427,213.569 113.396,233.142 113.396,233.29 
		113.396,233.29 113.396,233.373 326.261,233.681 326.288,213.987 326.288,213.96 326.288,213.96 326.288,213.878 	" style="fill: rgb(75, 75, 75);"></polygon>
	<polygon class="st0" points="113.739,263.031 113.434,263.031 113.434,263.031 113.352,263.031 113.325,282.721 113.325,282.752 
		113.325,282.752 113.325,282.83 326.187,283.139 326.218,263.449 326.218,263.422 326.218,263.422 326.218,263.339 	" style="fill: rgb(75, 75, 75);"></polygon>
	<polygon class="st0" points="113.672,312.489 113.36,312.489 113.36,312.489 113.282,312.489 113.251,332.183 113.251,332.21 
		113.251,332.21 113.251,332.292 326.116,332.601 326.144,312.906 326.144,312.879 326.144,312.879 326.144,312.798 	" style="fill: rgb(75, 75, 75);"></polygon>
	<polygon class="st0" points="113.208,361.95 113.18,381.641 113.18,381.672 113.18,381.672 113.18,381.75 326.043,382.058 
		326.074,362.369 326.074,362.338 326.074,362.338 326.074,362.259 	" style="fill: rgb(75, 75, 75);"></polygon>
	<path class="st0" d="M391.448,0c-50.727-0.07-91.908,40.99-91.982,91.717c-0.074,50.728,40.99,91.909,91.717,91.983
		c50.724,0.074,91.909-40.99,91.979-91.718C483.236,41.259,442.176,0.074,391.448,0z M375.949,131.375l0.032-21.429
		c0.003-1.554-1.254-2.812-2.809-2.812l-24.994-0.039c-0.133,0-0.246-0.058-0.375-0.074c-0.48-0.07-0.918-0.254-1.305-0.543
		c-0.195-0.152-0.363-0.32-0.511-0.515c-0.293-0.386-0.469-0.828-0.539-1.305c-0.019-0.129-0.074-0.242-0.074-0.375l0.035-24.998
		c0.004-1.55,1.262-2.808,2.816-2.804l24.995,0.035c1.55,0.004,2.812-1.254,2.816-2.805l0.031-21.428
		c0.004-3.523,2.863-6.375,6.386-6.371l17.858,0.027c3.523,0.004,6.374,2.867,6.37,6.386l-0.031,21.429
		c-0.004,1.554,1.254,2.812,2.805,2.816l21.428,0.031c3.523,0.004,6.374,2.863,6.367,6.386l-0.024,17.858
		c-0.007,3.523-2.866,6.374-6.39,6.37l-21.429-0.031c-1.55-0.004-2.808,1.254-2.812,2.805l-0.031,21.428
		c-0.004,3.523-2.863,6.375-6.386,6.371l-17.862-0.028C378.793,137.758,375.946,134.898,375.949,131.375z" style="fill: rgb(75, 75, 75);"></path>
</g>
</svg>
