<?xml version="1.0" encoding="us-ascii" standalone="no"?><svg xmlns="http://www.w3.org/2000/svg" xmlns:xlink="http://www.w3.org/1999/xlink" contentStyleType="text/css" height="428px" preserveAspectRatio="none" style="width:753px;height:428px;background:#FFFFFF;" version="1.1" viewBox="0 0 753 428" width="753px" zoomAndPan="magnify"><defs/><g><text fill="#000000" font-family="sans-serif" font-size="14" font-weight="bold" lengthAdjust="spacing" textLength="303.1875" x="223.6563" y="34.5332">&#26989;&#21209;&#31649;&#29702;&#12471;&#12473;&#12486;&#12512;&#65288;&#20206;&#65289;&#12398;&#12513;&#12531;&#12496;&#12540;&#30331;&#37682;&#12501;&#12525;&#12540;</text><rect fill="none" height="22.6406" style="stroke:none;stroke-width:1.0;" width="720.5" x="15" y="51.0645"/><ellipse cx="360" cy="88.7051" fill="#222222" rx="10" ry="10" style="stroke:#222222;stroke-width:1.0;"/><rect fill="#F1F1F1" height="35.0938" rx="12.5" ry="12.5" style="stroke:#181818;stroke-width:0.5;" width="68" x="326" y="118.7051"/><text fill="#000000" font-family="sans-serif" font-size="12" lengthAdjust="spacing" textLength="48" x="336" y="141.1621">&#12525;&#12464;&#12452;&#12531;</text><path d="M97,178.1699 L97,204.5215 A0,0 0 0 0 97,204.5215 L300,204.5215 A0,0 0 0 0 300,204.5215 L300,196.1699 L320,191.3457 L300,188.1699 L300,188.1699 L290,178.1699 L97,178.1699 A0,0 0 0 0 97,178.1699 " fill="#FEFFDD" style="stroke:#181818;stroke-width:0.5;"/><path d="M290,178.1699 L290,188.1699 L300,188.1699 L290,178.1699 " fill="#FEFFDD" style="stroke:#181818;stroke-width:0.5;"/><text fill="#000000" font-family="sans-serif" font-size="13" lengthAdjust="spacing" textLength="182" x="103" y="196.665">(UC)&#37197;&#19979;&#12398;&#12513;&#12531;&#12496;&#12540;&#12434;&#30331;&#37682;&#12377;&#12427;</text><rect fill="#F1F1F1" height="35.0938" rx="12.5" ry="12.5" style="stroke:#181818;stroke-width:0.5;" width="80" x="320" y="173.7988"/><text fill="#000000" font-family="sans-serif" font-size="12" lengthAdjust="spacing" textLength="60" x="330" y="196.2559">&#21033;&#29992;&#32773;&#30331;&#37682;</text><path d="M20,233.2637 L20,259.6152 A0,0 0 0 0 20,259.6152 L288,259.6152 A0,0 0 0 0 288,259.6152 L288,251.2637 L308,246.4395 L288,243.2637 L288,243.2637 L278,233.2637 L20,233.2637 A0,0 0 0 0 20,233.2637 " fill="#FEFFDD" style="stroke:#181818;stroke-width:0.5;"/><path d="M278,233.2637 L278,243.2637 L288,243.2637 L278,233.2637 " fill="#FEFFDD" style="stroke:#181818;stroke-width:0.5;"/><text fill="#000000" font-family="sans-serif" font-size="13" lengthAdjust="spacing" textLength="247" x="26" y="251.7588">(UC)&#30331;&#37682;&#12375;&#12383;&#12513;&#12531;&#12496;&#12540;&#12395;&#12513;&#12540;&#12523;&#12391;&#36890;&#30693;&#12377;&#12427;</text><rect fill="#F1F1F1" height="35.0938" rx="12.5" ry="12.5" style="stroke:#181818;stroke-width:0.5;" width="104" x="308" y="228.8926"/><text fill="#000000" font-family="sans-serif" font-size="12" lengthAdjust="spacing" textLength="84" x="318" y="251.3496">&#21033;&#29992;&#32773;&#30331;&#37682;&#36890;&#30693;</text><line style="stroke:#000000;stroke-width:1.5;" x1="15" x2="15" y1="51.0645" y2="416.1738"/><rect fill="#F1F1F1" height="35.0938" rx="12.5" ry="12.5" style="stroke:#181818;stroke-width:0.5;" width="104" x="626" y="283.9863"/><text fill="#000000" font-family="sans-serif" font-size="12" lengthAdjust="spacing" textLength="84" x="636" y="306.4434">&#36890;&#30693;&#12513;&#12540;&#12523;&#21463;&#20449;</text><path d="M421,343.4512 L421,369.8027 A0,0 0 0 0 421,369.8027 L624,369.8027 A0,0 0 0 0 624,369.8027 L624,361.4512 L644,356.627 L624,353.4512 L624,353.4512 L614,343.4512 L421,343.4512 A0,0 0 0 0 421,343.4512 " fill="#FEFFDD" style="stroke:#181818;stroke-width:0.5;"/><path d="M614,343.4512 L614,353.4512 L624,353.4512 L614,343.4512 " fill="#FEFFDD" style="stroke:#181818;stroke-width:0.5;"/><text fill="#000000" font-family="sans-serif" font-size="13" lengthAdjust="spacing" textLength="182" x="427" y="361.9463">(UC)&#35352;&#36617;&#12375;&#12383;&#12522;&#12531;&#12463;&#12434;&#12463;&#12522;&#12483;&#12463;</text><rect fill="#F1F1F1" height="35.0938" rx="12.5" ry="12.5" style="stroke:#181818;stroke-width:0.5;" width="68" x="644" y="339.0801"/><text fill="#000000" font-family="sans-serif" font-size="12" lengthAdjust="spacing" textLength="48" x="654" y="361.5371">&#21463;&#20449;&#30906;&#35469;</text><ellipse cx="678" cy="405.1738" fill="none" rx="11" ry="11" style="stroke:#222222;stroke-width:1.0;"/><ellipse cx="678" cy="405.1738" fill="#222222" rx="6" ry="6" style="stroke:#222222;stroke-width:1.0;"/><line style="stroke:#000000;stroke-width:1.5;" x1="416" x2="416" y1="51.0645" y2="416.1738"/><line style="stroke:#000000;stroke-width:1.5;" x1="734" x2="734" y1="51.0645" y2="416.1738"/><line style="stroke:#181818;stroke-width:1.0;" x1="360" x2="360" y1="98.7051" y2="118.7051"/><polygon fill="#181818" points="356,108.7051,360,118.7051,364,108.7051,360,112.7051" style="stroke:#181818;stroke-width:1.0;"/><line style="stroke:#181818;stroke-width:1.0;" x1="360" x2="360" y1="153.7988" y2="173.7988"/><polygon fill="#181818" points="356,163.7988,360,173.7988,364,163.7988,360,167.7988" style="stroke:#181818;stroke-width:1.0;"/><line style="stroke:#181818;stroke-width:1.0;" x1="360" x2="360" y1="208.8926" y2="228.8926"/><polygon fill="#181818" points="356,218.8926,360,228.8926,364,218.8926,360,222.8926" style="stroke:#181818;stroke-width:1.0;"/><line style="stroke:#181818;stroke-width:1.0;" x1="678" x2="678" y1="319.0801" y2="339.0801"/><polygon fill="#181818" points="674,329.0801,678,339.0801,682,329.0801,678,333.0801" style="stroke:#181818;stroke-width:1.0;"/><line style="stroke:#181818;stroke-width:1.0;" x1="678" x2="678" y1="374.1738" y2="394.1738"/><polygon fill="#181818" points="674,384.1738,678,394.1738,682,384.1738,678,388.1738" style="stroke:#181818;stroke-width:1.0;"/><line style="stroke:#181818;stroke-width:1.0;" x1="360" x2="360" y1="263.9863" y2="268.9863"/><line style="stroke:#181818;stroke-width:1.0;" x1="360" x2="678" y1="268.9863" y2="268.9863"/><line style="stroke:#181818;stroke-width:1.0;" x1="678" x2="678" y1="268.9863" y2="283.9863"/><polygon fill="#181818" points="674,273.9863,678,283.9863,682,273.9863,678,277.9863" style="stroke:#181818;stroke-width:1.0;"/><text fill="#000000" font-family="sans-serif" font-size="18" lengthAdjust="spacing" textLength="83" x="174" y="69.75">MG&#21033;&#29992;&#32773;</text><text fill="#000000" font-family="sans-serif" font-size="18" lengthAdjust="spacing" textLength="72" x="539" y="69.75">&#12513;&#12531;&#12496;&#12540;</text><!--SRC=[AyaioKcrKdYsTEtJxfdFroryFg7jSTFsnqqx7pUtFMvUy7vFnvFTwzxlwNpSkEvnyyB7pPiVDqzutBpd-SpTBtisFMwU-hXvBP3BnLNZw_wqO-NpAIjUDBJMS1MN91QLS75PWMIRDZnkMWBKQ0tamvL0z5jpvUMNf2hafAQLS6c4Eck-RErzigCRpQh7JPEWjZNEVDpKpPMQbw80qePftCk6MS_dBqKt5APv-kF6-IZcDgu6S_SyRbxzk74vH3E67JN8McguhA3AO1gVzaz_idyXs6jWrlD5krwiwaLtmeiLCrw0WX3YX5KWyvhM0_q58a7SPY03oSxYalm2BW00]--></g></svg>