<?xml version="1.0" encoding="us-ascii" standalone="no"?><svg xmlns="http://www.w3.org/2000/svg" xmlns:xlink="http://www.w3.org/1999/xlink" contentStyleType="text/css" height="428px" preserveAspectRatio="none" style="width:761px;height:428px;background:#FFFFFF;" version="1.1" viewBox="0 0 761 428" width="761px" zoomAndPan="magnify"><defs/><g><text fill="#000000" font-family="sans-serif" font-size="14" font-weight="bold" lengthAdjust="spacing" textLength="312.75" x="222.875" y="34.5332">&#26989;&#21209;&#31649;&#29702;&#12471;&#12473;&#12486;&#12512;&#65288;&#20206;&#65289;&#12398;MG&#21033;&#29992;&#32773;&#30331;&#37682;&#12501;&#12525;&#12540;</text><rect fill="none" height="22.6406" style="stroke:none;stroke-width:1.0;" width="728.5" x="15" y="51.0645"/><ellipse cx="368" cy="88.7051" fill="#222222" rx="10" ry="10" style="stroke:#222222;stroke-width:1.0;"/><rect fill="#F1F1F1" height="35.0938" rx="12.5" ry="12.5" style="stroke:#181818;stroke-width:0.5;" width="68" x="334" y="118.7051"/><text fill="#000000" font-family="sans-serif" font-size="12" lengthAdjust="spacing" textLength="48" x="344" y="141.1621">&#12525;&#12464;&#12452;&#12531;</text><path d="M136,178.1699 L136,204.5215 A0,0 0 0 0 136,204.5215 L308,204.5215 A0,0 0 0 0 308,204.5215 L308,196.1699 L328,191.3457 L308,188.1699 L308,188.1699 L298,178.1699 L136,178.1699 A0,0 0 0 0 136,178.1699 " fill="#FEFFDD" style="stroke:#181818;stroke-width:0.5;"/><path d="M298,178.1699 L298,188.1699 L308,188.1699 L298,178.1699 " fill="#FEFFDD" style="stroke:#181818;stroke-width:0.5;"/><text fill="#000000" font-family="sans-serif" font-size="13" lengthAdjust="spacing" textLength="151" x="142" y="196.665">(UC)MG&#21033;&#29992;&#32773;&#12434;&#30331;&#37682;&#12377;&#12427;</text><rect fill="#F1F1F1" height="35.0938" rx="12.5" ry="12.5" style="stroke:#181818;stroke-width:0.5;" width="80" x="328" y="173.7988"/><text fill="#000000" font-family="sans-serif" font-size="12" lengthAdjust="spacing" textLength="60" x="338" y="196.2559">&#21033;&#29992;&#32773;&#30331;&#37682;</text><path d="M20,233.2637 L20,259.6152 A0,0 0 0 0 20,259.6152 L296,259.6152 A0,0 0 0 0 296,259.6152 L296,251.2637 L316,246.4395 L296,243.2637 L296,243.2637 L286,233.2637 L20,233.2637 A0,0 0 0 0 20,233.2637 " fill="#FEFFDD" style="stroke:#181818;stroke-width:0.5;"/><path d="M286,233.2637 L286,243.2637 L296,243.2637 L286,233.2637 " fill="#FEFFDD" style="stroke:#181818;stroke-width:0.5;"/><text fill="#000000" font-family="sans-serif" font-size="13" lengthAdjust="spacing" textLength="255" x="26" y="251.7588">(UC)&#30331;&#37682;&#12375;&#12383;MG&#21033;&#29992;&#32773;&#12395;&#12513;&#12540;&#12523;&#12391;&#36890;&#30693;&#12377;&#12427;</text><rect fill="#F1F1F1" height="35.0938" rx="12.5" ry="12.5" style="stroke:#181818;stroke-width:0.5;" width="104" x="316" y="228.8926"/><text fill="#000000" font-family="sans-serif" font-size="12" lengthAdjust="spacing" textLength="84" x="326" y="251.3496">&#21033;&#29992;&#32773;&#30331;&#37682;&#36890;&#30693;</text><line style="stroke:#000000;stroke-width:1.5;" x1="15" x2="15" y1="51.0645" y2="416.1738"/><rect fill="#F1F1F1" height="35.0938" rx="12.5" ry="12.5" style="stroke:#181818;stroke-width:0.5;" width="104" x="634" y="283.9863"/><text fill="#000000" font-family="sans-serif" font-size="12" lengthAdjust="spacing" textLength="84" x="644" y="306.4434">&#36890;&#30693;&#12513;&#12540;&#12523;&#21463;&#20449;</text><path d="M429,343.4512 L429,369.8027 A0,0 0 0 0 429,369.8027 L632,369.8027 A0,0 0 0 0 632,369.8027 L632,361.4512 L652,356.627 L632,353.4512 L632,353.4512 L622,343.4512 L429,343.4512 A0,0 0 0 0 429,343.4512 " fill="#FEFFDD" style="stroke:#181818;stroke-width:0.5;"/><path d="M622,343.4512 L622,353.4512 L632,353.4512 L622,343.4512 " fill="#FEFFDD" style="stroke:#181818;stroke-width:0.5;"/><text fill="#000000" font-family="sans-serif" font-size="13" lengthAdjust="spacing" textLength="182" x="435" y="361.9463">(UC)&#35352;&#36617;&#12375;&#12383;&#12522;&#12531;&#12463;&#12434;&#12463;&#12522;&#12483;&#12463;</text><rect fill="#F1F1F1" height="35.0938" rx="12.5" ry="12.5" style="stroke:#181818;stroke-width:0.5;" width="68" x="652" y="339.0801"/><text fill="#000000" font-family="sans-serif" font-size="12" lengthAdjust="spacing" textLength="48" x="662" y="361.5371">&#21463;&#20449;&#30906;&#35469;</text><ellipse cx="686" cy="405.1738" fill="none" rx="11" ry="11" style="stroke:#222222;stroke-width:1.0;"/><ellipse cx="686" cy="405.1738" fill="#222222" rx="6" ry="6" style="stroke:#222222;stroke-width:1.0;"/><line style="stroke:#000000;stroke-width:1.5;" x1="424" x2="424" y1="51.0645" y2="416.1738"/><line style="stroke:#000000;stroke-width:1.5;" x1="742" x2="742" y1="51.0645" y2="416.1738"/><line style="stroke:#181818;stroke-width:1.0;" x1="368" x2="368" y1="98.7051" y2="118.7051"/><polygon fill="#181818" points="364,108.7051,368,118.7051,372,108.7051,368,112.7051" style="stroke:#181818;stroke-width:1.0;"/><line style="stroke:#181818;stroke-width:1.0;" x1="368" x2="368" y1="153.7988" y2="173.7988"/><polygon fill="#181818" points="364,163.7988,368,173.7988,372,163.7988,368,167.7988" style="stroke:#181818;stroke-width:1.0;"/><line style="stroke:#181818;stroke-width:1.0;" x1="368" x2="368" y1="208.8926" y2="228.8926"/><polygon fill="#181818" points="364,218.8926,368,228.8926,372,218.8926,368,222.8926" style="stroke:#181818;stroke-width:1.0;"/><line style="stroke:#181818;stroke-width:1.0;" x1="686" x2="686" y1="319.0801" y2="339.0801"/><polygon fill="#181818" points="682,329.0801,686,339.0801,690,329.0801,686,333.0801" style="stroke:#181818;stroke-width:1.0;"/><line style="stroke:#181818;stroke-width:1.0;" x1="686" x2="686" y1="374.1738" y2="394.1738"/><polygon fill="#181818" points="682,384.1738,686,394.1738,690,384.1738,686,388.1738" style="stroke:#181818;stroke-width:1.0;"/><line style="stroke:#181818;stroke-width:1.0;" x1="368" x2="368" y1="263.9863" y2="268.9863"/><line style="stroke:#181818;stroke-width:1.0;" x1="368" x2="686" y1="268.9863" y2="268.9863"/><line style="stroke:#181818;stroke-width:1.0;" x1="686" x2="686" y1="268.9863" y2="283.9863"/><polygon fill="#181818" points="682,273.9863,686,283.9863,690,273.9863,686,277.9863" style="stroke:#181818;stroke-width:1.0;"/><text fill="#000000" font-family="sans-serif" font-size="18" lengthAdjust="spacing" textLength="126" x="156.5" y="69.75">&#12471;&#12473;&#12486;&#12512;&#31649;&#29702;&#32773;</text><text fill="#000000" font-family="sans-serif" font-size="18" lengthAdjust="spacing" textLength="83" x="541.5" y="69.75">MG&#21033;&#29992;&#32773;</text><!--SRC=[PL3DIW9H5DwVfvXblSAuRD6gPGyGD44WAdgNi_3UGs9O597ejB6995ESeXPH3lGmdzCTLxv2z_e3bt5pE0U-toFEHJdmlR_XDEj4EedrRGlg2-eRt08_BjFsV9Oiqql8vEWmQx_g-r7UlD3HR77r0Uw2f-2KA7H9Qna32waXJkg2oBSuzGxr3FuicRkWLA9ALGHUEJWJj7TyiEzOGTrjt6G4rQ6WSkfPyAx8elcW1yEYr9RSWnouid82Zarsy0JoPStTiGWTHaZ-1hNbPJUz-M-yghFQzDDFFhuk1iX7_Tp-pmO0Zyq3eDvCApljoMPnB1kYMgD_]--></g></svg>