<!--?xml version="1.0" encoding="utf-8"?-->
<!-- Generator: Adobe Illustrator 18.1.1, SVG Export Plug-In . SVG Version: 6.00 Build 0)  -->

<svg version="1.1" id="_x31_0" xmlns="http://www.w3.org/2000/svg" xmlns:xlink="http://www.w3.org/1999/xlink" x="0px" y="0px" viewBox="0 0 512 512" style="width: 48px; height: 48px; opacity: 1;" xml:space="preserve">
<style type="text/css">
	.st0{fill:#374149;}
</style>
<g>
	<path class="st0" d="M341.801,141.215c0-4.344-3.523-7.867-7.867-7.867H178.066c-4.344,0-7.867,3.523-7.867,7.867v203.39H145.05
		v34.046H366.95v-34.046h-25.149V141.215z M315.402,288.59v15.946h-19.801V288.59H315.402z M315.402,267.328h-19.801v-38.504h19.801
		v38.43V267.328z M315.402,213.238h-19.801v-38.5h19.801v38.422V213.238z M272.5,357.754h-33V288.59h33v68.898V357.754z
		 M272.5,267.328h-33v-38.504h33v38.43V267.328z M272.5,213.238h-33v-38.5h33v38.422V213.238z M216.398,288.59v15.946h-19.801
		V288.59H216.398z M216.398,267.328h-19.801v-38.504h19.801v38.43V267.328z M216.398,213.238h-19.801v-38.5h19.801v38.422V213.238z" style="fill: rgb(255, 255, 255);"></path>
	<path class="st0" d="M256,0C114.617,0,0,114.614,0,256s114.617,256,256,256c141.386,0,256-114.614,256-256S397.386,0,256,0z
		 M256,448c-105.867,0-192-86.129-192-192S150.133,64,256,64c105.871,0,192,86.129,192,192S361.871,448,256,448z" style="fill: rgb(255, 255, 255);"></path>
</g>
</svg>
